# xmcd CD database file
#
# Track frame offsets:
#	150
#	20304
#	49678
#
# Disc length: 843 seconds
#
# Revision: 1
# Processed by: cddbd v1.5.2PL0 Copyright (c) Steve Scherf et al.
# Submitted via: CDex 1.51
#
DISCID=19034903
DTITLE=YNGWIE MALMSTEEN - Power And Glory EP
DYEAR=1994
DGENRE=Heavy Metal
TTITLE0=Power And Glory -Takada's Theme-
TTITLE1=Seventh Sign
TTITLE2=Power And Glory -Takada's Theme- (Stadium Edit)
EXTD=YEAR: 1994
EXTT0=
EXTT1=
EXTT2=
PLAYORDER=
